<?xml version="1.0" encoding="UTF-8" ?>
<!DOCTYPE svg PUBLIC "-//W3C//DTD SVG 1.1//EN" "http://www.w3.org/Graphics/SVG/1.1/DTD/svg11.dtd">
<svg width="200pt" height="200pt" viewBox="0 0 200 200" version="1.1" xmlns="http://www.w3.org/2000/svg">
<g id="#2f3336ff">
</g>
<g id="#ffffffff">
<path fill="#ffffff" opacity="1.00" d=" M 52.03 31.14 C 54.73 27.00 58.95 23.69 63.96 23.07 C 71.29 21.84 79.01 26.40 81.50 33.39 C 84.29 40.65 81.12 49.57 74.21 53.23 C 67.78 56.96 59.15 55.34 54.18 49.90 C 52.30 47.72 51.08 45.09 50.40 42.31 C 47.59 45.41 43.20 46.81 39.15 45.63 C 39.46 47.85 39.12 50.05 38.13 52.06 C 40.59 52.59 43.00 53.56 44.72 55.48 C 48.14 59.41 48.34 65.80 44.67 69.63 C 41.35 73.40 35.46 74.03 31.25 71.38 C 25.73 68.06 24.90 59.60 29.52 55.15 C 26.23 53.90 23.71 50.58 24.20 46.97 C 24.54 42.84 28.64 39.69 32.71 40.22 C 30.00 34.64 33.06 27.22 39.10 25.53 C 44.17 23.76 49.51 26.72 52.03 31.14 M 62.22 28.21 C 57.52 29.93 54.20 34.92 54.72 39.95 C 54.95 46.11 60.89 51.25 67.02 50.70 C 73.37 50.44 78.65 44.22 77.77 37.90 C 77.32 30.63 68.97 25.40 62.22 28.21 M 39.41 30.34 C 35.61 32.14 35.19 38.03 38.72 40.33 C 42.11 43.10 48.07 40.45 47.94 35.98 C 48.68 31.53 43.20 28.05 39.41 30.34 M 30.21 45.16 C 26.78 46.94 29.96 52.43 33.20 50.35 C 36.59 48.53 33.45 43.16 30.21 45.16 M 34.27 57.31 C 30.65 58.99 29.84 64.39 32.98 66.95 C 36.26 70.33 42.68 67.74 42.77 63.07 C 43.37 58.70 38.13 55.11 34.27 57.31 Z" />
<path fill="#ffffff" opacity="1.00" d=" M 55.22 59.26 C 61.18 56.46 68.39 62.60 66.49 68.91 C 65.32 74.81 57.21 77.25 52.92 73.08 C 48.40 69.34 49.78 61.37 55.22 59.26 M 57.28 63.34 C 54.78 64.03 53.80 67.50 55.59 69.36 C 57.28 71.62 61.35 70.74 61.94 67.99 C 63.00 65.29 59.97 62.32 57.28 63.34 Z" />
<path fill="#ffffff" opacity="1.00" d=" M 81.99 73.01 C 81.76 67.42 88.88 65.52 93.02 67.86 C 95.25 69.00 96.05 71.66 95.94 74.00 C 95.97 88.32 95.90 102.64 95.97 116.95 C 104.64 117.13 113.34 116.62 122.00 117.13 C 126.66 117.73 127.64 124.57 124.31 127.28 C 122.52 128.65 120.17 128.39 118.06 128.43 C 108.05 128.34 98.04 128.48 88.03 128.31 C 84.70 128.36 81.80 125.37 81.98 122.05 C 81.93 105.71 81.92 89.36 81.99 73.01 Z" />
</g>
<g id="#97b8eaff">
<path fill="#97b8ea" opacity="1.00" d=" M 95.89 25.52 C 100.18 24.32 104.93 24.85 108.84 26.98 C 125.87 36.00 142.91 45.00 159.93 54.04 C 165.28 56.96 168.80 62.86 168.87 68.95 C 168.91 88.32 168.89 107.69 168.88 127.06 C 168.86 132.92 165.64 138.63 160.63 141.68 C 143.36 152.10 126.07 162.47 108.79 172.87 C 103.64 176.15 96.76 176.45 91.38 173.55 C 74.41 164.56 57.44 155.56 40.47 146.55 C 34.79 143.64 31.08 137.37 31.21 130.99 C 31.22 111.12 31.14 91.25 31.25 71.38 C 35.46 74.03 41.35 73.40 44.67 69.63 C 48.34 65.80 48.14 59.41 44.72 55.48 C 47.95 53.74 51.03 51.76 54.18 49.90 C 59.15 55.34 67.78 56.96 74.21 53.23 C 81.12 49.57 84.29 40.65 81.50 33.39 C 86.34 30.85 90.65 27.21 95.89 25.52 M 55.22 59.26 C 49.78 61.37 48.40 69.34 52.92 73.08 C 57.21 77.25 65.32 74.81 66.49 68.91 C 68.39 62.60 61.18 56.46 55.22 59.26 M 81.99 73.01 C 81.92 89.36 81.93 105.71 81.98 122.05 C 81.80 125.37 84.70 128.36 88.03 128.31 C 98.04 128.48 108.05 128.34 118.06 128.43 C 120.17 128.39 122.52 128.65 124.31 127.28 C 127.64 124.57 126.66 117.73 122.00 117.13 C 113.34 116.62 104.64 117.13 95.97 116.95 C 95.90 102.64 95.97 88.32 95.94 74.00 C 96.05 71.66 95.25 69.00 93.02 67.86 C 88.88 65.52 81.76 67.42 81.99 73.01 Z" />
<path fill="#97b8ea" opacity="1.00" d=" M 62.22 28.21 C 68.97 25.40 77.32 30.63 77.77 37.90 C 78.65 44.22 73.37 50.44 67.02 50.70 C 60.89 51.25 54.95 46.11 54.72 39.95 C 54.20 34.92 57.52 29.93 62.22 28.21 Z" />
<path fill="#97b8ea" opacity="1.00" d=" M 39.41 30.34 C 43.20 28.05 48.68 31.53 47.94 35.98 C 48.07 40.45 42.11 43.10 38.72 40.33 C 35.19 38.03 35.61 32.14 39.41 30.34 Z" />
<path fill="#97b8ea" opacity="1.00" d=" M 30.21 45.16 C 33.45 43.16 36.59 48.53 33.20 50.35 C 29.96 52.43 26.78 46.94 30.21 45.16 Z" />
<path fill="#97b8ea" opacity="1.00" d=" M 34.27 57.31 C 38.13 55.11 43.37 58.70 42.77 63.07 C 42.68 67.74 36.26 70.33 32.98 66.95 C 29.84 64.39 30.65 58.99 34.27 57.31 Z" />
<path fill="#97b8ea" opacity="1.00" d=" M 57.28 63.34 C 59.97 62.32 63.00 65.29 61.94 67.99 C 61.35 70.74 57.28 71.62 55.59 69.36 C 53.80 67.50 54.78 64.03 57.28 63.34 Z" />
</g>
</svg>
